<svg width="108" height="101" viewBox="0 0 108 101" fill="none" xmlns="http://www.w3.org/2000/svg">
<path fill-rule="evenodd" clip-rule="evenodd" d="M52.1102 1.18609C62.4651 -0.676876 73.6349 -0.856109 82.7264 4.44962C92.2813 10.0258 98.2266 20.0279 102.149 30.3887C106.232 41.1714 111.191 54.1063 105.27 63.9955C99.3381 73.9039 83.7807 70.7312 74.1719 77.1175C65.2672 83.0359 62.3598 96.3026 52.1102 99.3278C40.7906 102.669 27.2228 101.11 18.038 93.6855C8.96172 86.3484 8.59556 73.1189 5.68848 61.8011C2.98886 51.2909 -2.94452 40.0635 1.75307 30.2851C6.38464 20.6441 19.3094 19.5397 28.5585 14.195C36.5189 9.59512 43.066 2.81324 52.1102 1.18609Z" fill="#7E98DF"/>
<path opacity="0.2" d="M49.118 31.8195L59.5426 37.8116C60.3658 38.2848 60.8733 39.1619 60.8733 40.1114C60.8733 42.1512 58.6671 43.4277 56.8987 42.4112L49.118 37.9388C48.0072 37.3003 46.6407 37.3003 45.5299 37.9388L37.7492 42.4112C35.9808 43.4277 33.7746 42.1512 33.7746 40.1114C33.7746 39.1619 34.2821 38.2848 35.1053 37.8116L45.5299 31.8195C46.6407 31.181 48.0072 31.181 49.118 31.8195Z" fill="white"/>
<path opacity="0.35" d="M67.4406 36.6662L67.387 48.5015C67.3826 49.4418 66.875 50.3064 66.0532 50.774C64.2607 51.7938 62.0136 50.4947 62.0229 48.4438L62.0625 39.7259C62.0684 38.4273 61.3627 37.2228 60.2184 36.5786L52.5367 32.2534C50.7295 31.2359 50.7113 28.6687 52.5039 27.6489C53.3258 27.1813 54.3394 27.1806 55.168 27.6471L65.5963 33.5189C66.7408 34.1632 67.4464 35.3676 67.4406 36.6662Z" fill="white"/>
<path opacity="0.5" d="M72.3715 54.7987L61.9432 60.6704C61.1146 61.137 60.101 61.1362 59.2791 60.6686C57.4865 59.6487 57.5048 57.0817 59.3119 56.0642L66.9935 51.739C68.1379 51.0948 68.8435 49.8903 68.8378 48.5917L68.7982 39.8738C68.7888 37.8229 71.0359 36.5237 72.8284 37.5436C73.6502 38.0112 74.1578 38.8758 74.1622 39.8161L74.2158 51.6514C74.2216 52.95 73.516 54.1544 72.3715 54.7987Z" fill="white"/>
<path opacity="0.65" d="M59.0796 68.1422L48.655 62.15C47.8318 61.6766 47.3243 60.7996 47.3243 59.85C47.3243 57.8103 49.5305 56.5338 51.2989 57.5503L59.0796 62.0226C60.1904 62.6612 61.5569 62.6612 62.6677 62.0226L70.4484 57.5503C72.2167 56.5338 74.4228 57.8103 74.4228 59.85C74.4228 60.7996 73.9156 61.6766 73.0922 62.15L62.6677 68.1422C61.5569 68.7805 60.1904 68.7805 59.0796 68.1422Z" fill="white"/>
<path opacity="0.8" d="M40.5594 63.3337L40.6132 51.4985C40.6174 50.5582 41.1248 49.6936 41.9467 49.226C43.7393 48.2062 45.9864 49.5053 45.9771 51.5562L45.9375 60.274C45.9316 61.5726 46.6373 62.7771 47.7816 63.4215L55.4633 67.7466C57.2704 68.7639 57.2887 71.3314 55.4961 72.351C54.6742 72.8186 53.6606 72.8193 52.832 72.3528L42.4035 66.4812C41.2592 65.8368 40.5535 64.6326 40.5594 63.3337Z" fill="white"/>
<path d="M35.6283 45.2013L46.0568 39.3296C46.8854 38.863 47.899 38.8637 48.7209 39.3313C50.5135 40.3511 50.4953 42.9183 48.6881 43.9358L41.0064 48.261C39.8621 48.9052 39.1564 50.1097 39.1623 51.4083L39.2019 60.1261C39.2113 62.177 36.9642 63.4762 35.1715 62.4564C34.3496 61.9887 33.8423 61.1244 33.838 60.184L33.7842 48.3486C33.7783 47.05 34.484 45.8456 35.6283 45.2013Z" fill="white"/>
</svg>
